<!-- Generated by IcoMoon.io -->
<svg version="1.1" xmlns="http://www.w3.org/2000/svg" width="512" height="448" viewBox="0 0 512 448">
<g id="icomoon-ignore">
</g>
<path fill="#000" d="M479.946 192.007c17.745 0 31.993 14.247 31.993 31.993s-14.247 31.993-31.993 31.993h-3.749l-28.743 165.46c-2.749 15.246-15.996 26.494-31.493 26.494h-319.923c-15.497 0-28.743-11.247-31.493-26.494l-28.743-165.46h-3.749c-17.745 0-31.993-14.247-31.993-31.993s14.247-31.993 31.993-31.993h447.892zM121.282 391.959c8.748-0.75 15.497-8.498 14.746-17.246l-7.998-103.975c-0.75-8.748-8.498-15.497-17.246-14.746s-15.497 8.498-14.746 17.246l7.998 103.975c0.75 8.248 7.748 14.746 15.996 14.746h1.249zM224.008 375.964v-103.975c0-8.748-7.248-15.996-15.996-15.996s-15.996 7.248-15.996 15.996v103.975c0 8.748 7.248 15.996 15.996 15.996s15.996-7.248 15.996-15.996zM319.985 375.964v-103.975c0-8.748-7.248-15.996-15.996-15.996s-15.996 7.248-15.996 15.996v103.975c0 8.748 7.248 15.996 15.996 15.996s15.996-7.248 15.996-15.996zM407.964 377.213l7.998-103.975c0.75-8.748-5.999-16.496-14.746-17.246s-16.496 5.999-17.246 14.746l-7.998 103.975c-0.75 8.748 5.999 16.496 14.746 17.246h1.25c8.248 0 15.246-6.498 15.996-14.746zM119.033 73.036l-23.244 102.976h-32.992l25.244-110.224c6.498-29.242 32.242-49.738 62.235-49.738h41.74c0-8.748 7.248-15.996 15.996-15.996h95.977c8.748 0 15.996 7.248 15.996 15.996h41.74c29.993 0 55.737 20.495 62.235 49.738l25.244 110.224h-32.992l-23.244-102.976c-3.499-14.746-16.246-24.994-31.243-24.994h-41.74c0 8.748-7.248 15.996-15.996 15.996h-95.977c-8.748 0-15.996-7.248-15.996-15.996h-41.74c-14.997 0-27.744 10.248-31.243 24.994z"></path>
</svg>
