<!-- Generated by IcoMoon.io -->
<svg version="1.1" xmlns="http://www.w3.org/2000/svg" width="768" height="768" viewBox="0 0 768 768">
<g id="icomoon-ignore">
</g>
<path fill="#000" d="M544 672v-64c0-44.16-17.952-84.224-46.848-113.152s-68.992-46.848-113.152-46.848h-224c-44.16 0-84.224 17.952-113.152 46.848s-46.848 68.992-46.848 113.152v64c0 17.664 14.336 32 32 32s32-14.336 32-32v-64c0-26.528 10.72-50.464 28.128-67.872s41.344-28.128 67.872-28.128h224c26.528 0 50.464 10.72 67.872 28.128s28.128 41.344 28.128 67.872v64c0 17.664 14.336 32 32 32s32-14.336 32-32zM432 224c0-44.16-17.952-84.224-46.848-113.152s-68.992-46.848-113.152-46.848-84.224 17.952-113.152 46.848-46.848 68.992-46.848 113.152 17.952 84.224 46.848 113.152 68.992 46.848 113.152 46.848 84.224-17.952 113.152-46.848 46.848-68.992 46.848-113.152zM368 224c0 26.528-10.72 50.464-28.128 67.872s-41.344 28.128-67.872 28.128-50.464-10.72-67.872-28.128-28.128-41.344-28.128-67.872 10.72-50.464 28.128-67.872 41.344-28.128 67.872-28.128 50.464 10.72 67.872 28.128 28.128 41.344 28.128 67.872zM521.376 374.624l64 64c12.512 12.512 32.768 12.512 45.248 0l128-128c12.512-12.512 12.512-32.768 0-45.248s-32.768-12.512-45.248 0l-105.376 105.376-41.376-41.376c-12.512-12.512-32.768-12.512-45.248 0s-12.512 32.768 0 45.248z"></path>
</svg>
